<mxfile host="app.diagrams.net" modified="2023-11-28T03:54:58.322Z" agent="Mozilla/5.0 (X11; Linux x86_64) AppleWebKit/537.36 (KHTML, like Gecko) Chrome/119.0.0.0 Safari/537.36" etag="8trwc8VNCwnGbBHehCnA" version="22.1.4" type="device">
  <diagram name="Page-1" id="QG9PRZibdGxIGt1MgUig">
    <mxGraphModel dx="724" dy="388" grid="1" gridSize="10" guides="1" tooltips="1" connect="1" arrows="1" fold="1" page="1" pageScale="1" pageWidth="850" pageHeight="1100" math="0" shadow="0">
      <root>
        <mxCell id="0" />
        <mxCell id="1" parent="0" />
        <mxCell id="EPye9UFax_w_HfM-WdYs-2" value="Movement" style="swimlane;fontStyle=1;align=center;verticalAlign=top;childLayout=stackLayout;horizontal=1;startSize=26;horizontalStack=0;resizeParent=1;resizeParentMax=0;resizeLast=0;collapsible=1;marginBottom=0;whiteSpace=wrap;html=1;rounded=1;" vertex="1" parent="1">
          <mxGeometry x="345" y="180" width="355" height="268" as="geometry" />
        </mxCell>
        <mxCell id="EPye9UFax_w_HfM-WdYs-7" value="+ mObj: Entity*" style="text;strokeColor=none;fillColor=none;align=left;verticalAlign=top;spacingLeft=4;spacingRight=4;overflow=hidden;rotatable=0;points=[[0,0.5],[1,0.5]];portConstraint=eastwest;whiteSpace=wrap;html=1;" vertex="1" parent="EPye9UFax_w_HfM-WdYs-2">
          <mxGeometry y="26" width="355" height="26" as="geometry" />
        </mxCell>
        <mxCell id="EPye9UFax_w_HfM-WdYs-3" value="+ mSrc: sf::Vector2f" style="text;strokeColor=none;fillColor=none;align=left;verticalAlign=top;spacingLeft=4;spacingRight=4;overflow=hidden;rotatable=0;points=[[0,0.5],[1,0.5]];portConstraint=eastwest;whiteSpace=wrap;html=1;" vertex="1" parent="EPye9UFax_w_HfM-WdYs-2">
          <mxGeometry y="52" width="355" height="26" as="geometry" />
        </mxCell>
        <mxCell id="EPye9UFax_w_HfM-WdYs-9" value="+ mDst: sf::Vector2f" style="text;strokeColor=none;fillColor=none;align=left;verticalAlign=top;spacingLeft=4;spacingRight=4;overflow=hidden;rotatable=0;points=[[0,0.5],[1,0.5]];portConstraint=eastwest;whiteSpace=wrap;html=1;" vertex="1" parent="EPye9UFax_w_HfM-WdYs-2">
          <mxGeometry y="78" width="355" height="26" as="geometry" />
        </mxCell>
        <mxCell id="EPye9UFax_w_HfM-WdYs-10" value="+ mDuration: sf::Time" style="text;strokeColor=none;fillColor=none;align=left;verticalAlign=top;spacingLeft=4;spacingRight=4;overflow=hidden;rotatable=0;points=[[0,0.5],[1,0.5]];portConstraint=eastwest;whiteSpace=wrap;html=1;" vertex="1" parent="EPye9UFax_w_HfM-WdYs-2">
          <mxGeometry y="104" width="355" height="26" as="geometry" />
        </mxCell>
        <mxCell id="EPye9UFax_w_HfM-WdYs-11" value="+ mElapsedTime: sf::Time" style="text;strokeColor=none;fillColor=none;align=left;verticalAlign=top;spacingLeft=4;spacingRight=4;overflow=hidden;rotatable=0;points=[[0,0.5],[1,0.5]];portConstraint=eastwest;whiteSpace=wrap;html=1;" vertex="1" parent="EPye9UFax_w_HfM-WdYs-2">
          <mxGeometry y="130" width="355" height="26" as="geometry" />
        </mxCell>
        <mxCell id="EPye9UFax_w_HfM-WdYs-22" value="+ mMotion: Motion*" style="text;strokeColor=none;fillColor=none;align=left;verticalAlign=top;spacingLeft=4;spacingRight=4;overflow=hidden;rotatable=0;points=[[0,0.5],[1,0.5]];portConstraint=eastwest;whiteSpace=wrap;html=1;" vertex="1" parent="EPye9UFax_w_HfM-WdYs-2">
          <mxGeometry y="156" width="355" height="26" as="geometry" />
        </mxCell>
        <mxCell id="EPye9UFax_w_HfM-WdYs-4" value="" style="line;strokeWidth=1;fillColor=none;align=left;verticalAlign=middle;spacingTop=-1;spacingLeft=3;spacingRight=3;rotatable=0;labelPosition=right;points=[];portConstraint=eastwest;strokeColor=inherit;" vertex="1" parent="EPye9UFax_w_HfM-WdYs-2">
          <mxGeometry y="182" width="355" height="8" as="geometry" />
        </mxCell>
        <mxCell id="EPye9UFax_w_HfM-WdYs-6" value="+ Movement(obj: Entity*)" style="text;strokeColor=none;fillColor=none;align=left;verticalAlign=top;spacingLeft=4;spacingRight=4;overflow=hidden;rotatable=0;points=[[0,0.5],[1,0.5]];portConstraint=eastwest;whiteSpace=wrap;html=1;" vertex="1" parent="EPye9UFax_w_HfM-WdYs-2">
          <mxGeometry y="190" width="355" height="26" as="geometry" />
        </mxCell>
        <mxCell id="EPye9UFax_w_HfM-WdYs-5" value="+ setup(dst: sf::Vector2f, vel: sf::Vector2f, motion: Motion*): void" style="text;strokeColor=none;fillColor=none;align=left;verticalAlign=top;spacingLeft=4;spacingRight=4;overflow=hidden;rotatable=0;points=[[0,0.5],[1,0.5]];portConstraint=eastwest;whiteSpace=wrap;html=1;" vertex="1" parent="EPye9UFax_w_HfM-WdYs-2">
          <mxGeometry y="216" width="355" height="26" as="geometry" />
        </mxCell>
        <mxCell id="EPye9UFax_w_HfM-WdYs-17" value="+ update(dt: sf::Time): void" style="text;strokeColor=none;fillColor=none;align=left;verticalAlign=top;spacingLeft=4;spacingRight=4;overflow=hidden;rotatable=0;points=[[0,0.5],[1,0.5]];portConstraint=eastwest;whiteSpace=wrap;html=1;" vertex="1" parent="EPye9UFax_w_HfM-WdYs-2">
          <mxGeometry y="242" width="355" height="26" as="geometry" />
        </mxCell>
        <mxCell id="EPye9UFax_w_HfM-WdYs-14" style="edgeStyle=orthogonalEdgeStyle;rounded=0;orthogonalLoop=1;jettySize=auto;html=1;exitX=1;exitY=0.5;exitDx=0;exitDy=0;entryX=0;entryY=0.5;entryDx=0;entryDy=0;fontFamily=Helvetica;fontSize=12;fontColor=default;startSize=26;endSize=20;endArrow=diamondThin;endFill=0;" edge="1" parent="1" source="EPye9UFax_w_HfM-WdYs-13" target="EPye9UFax_w_HfM-WdYs-9">
          <mxGeometry relative="1" as="geometry" />
        </mxCell>
        <mxCell id="EPye9UFax_w_HfM-WdYs-13" value="Entity" style="html=1;whiteSpace=wrap;rounded=1;strokeColor=default;align=center;verticalAlign=middle;fontFamily=Helvetica;fontSize=12;fontColor=default;startSize=26;fillColor=default;" vertex="1" parent="1">
          <mxGeometry x="210" y="249" width="70" height="44" as="geometry" />
        </mxCell>
        <mxCell id="EPye9UFax_w_HfM-WdYs-15" style="edgeStyle=orthogonalEdgeStyle;rounded=0;orthogonalLoop=1;jettySize=auto;html=1;exitX=0.5;exitY=1;exitDx=0;exitDy=0;fontFamily=Helvetica;fontSize=12;fontColor=default;startSize=26;" edge="1" parent="1" source="EPye9UFax_w_HfM-WdYs-13" target="EPye9UFax_w_HfM-WdYs-13">
          <mxGeometry relative="1" as="geometry" />
        </mxCell>
        <mxCell id="EPye9UFax_w_HfM-WdYs-38" style="edgeStyle=orthogonalEdgeStyle;shape=connector;rounded=0;orthogonalLoop=1;jettySize=auto;html=1;exitX=0.5;exitY=1;exitDx=0;exitDy=0;entryX=0.5;entryY=0;entryDx=0;entryDy=0;dashed=1;dashPattern=8 8;labelBackgroundColor=default;strokeColor=default;align=center;verticalAlign=middle;fontFamily=Helvetica;fontSize=12;fontColor=default;endArrow=none;endFill=0;startSize=15;endSize=15;startArrow=block;startFill=0;" edge="1" parent="1" source="EPye9UFax_w_HfM-WdYs-27" target="EPye9UFax_w_HfM-WdYs-30">
          <mxGeometry relative="1" as="geometry" />
        </mxCell>
        <mxCell id="EPye9UFax_w_HfM-WdYs-39" style="edgeStyle=orthogonalEdgeStyle;shape=connector;rounded=0;orthogonalLoop=1;jettySize=auto;html=1;exitX=0.5;exitY=1;exitDx=0;exitDy=0;entryX=0.5;entryY=0;entryDx=0;entryDy=0;dashed=1;dashPattern=8 8;labelBackgroundColor=default;strokeColor=default;align=center;verticalAlign=middle;fontFamily=Helvetica;fontSize=12;fontColor=default;startArrow=block;startFill=0;endArrow=none;endFill=0;startSize=15;endSize=15;" edge="1" parent="1" source="EPye9UFax_w_HfM-WdYs-27" target="EPye9UFax_w_HfM-WdYs-31">
          <mxGeometry relative="1" as="geometry" />
        </mxCell>
        <mxCell id="EPye9UFax_w_HfM-WdYs-40" style="edgeStyle=orthogonalEdgeStyle;shape=connector;rounded=0;orthogonalLoop=1;jettySize=auto;html=1;exitX=0.5;exitY=1;exitDx=0;exitDy=0;entryX=0.5;entryY=0;entryDx=0;entryDy=0;dashed=1;dashPattern=8 8;labelBackgroundColor=default;strokeColor=default;align=center;verticalAlign=middle;fontFamily=Helvetica;fontSize=12;fontColor=default;startArrow=block;startFill=0;endArrow=none;endFill=0;startSize=15;endSize=15;" edge="1" parent="1" source="EPye9UFax_w_HfM-WdYs-27" target="EPye9UFax_w_HfM-WdYs-32">
          <mxGeometry relative="1" as="geometry" />
        </mxCell>
        <mxCell id="EPye9UFax_w_HfM-WdYs-41" style="edgeStyle=orthogonalEdgeStyle;shape=connector;rounded=0;orthogonalLoop=1;jettySize=auto;html=1;exitX=0.5;exitY=1;exitDx=0;exitDy=0;entryX=0.5;entryY=0;entryDx=0;entryDy=0;dashed=1;dashPattern=8 8;labelBackgroundColor=default;strokeColor=default;align=center;verticalAlign=middle;fontFamily=Helvetica;fontSize=12;fontColor=default;startArrow=block;startFill=0;endArrow=none;endFill=0;startSize=15;endSize=15;" edge="1" parent="1" source="EPye9UFax_w_HfM-WdYs-27" target="EPye9UFax_w_HfM-WdYs-33">
          <mxGeometry relative="1" as="geometry" />
        </mxCell>
        <mxCell id="EPye9UFax_w_HfM-WdYs-27" value="&lt;p style=&quot;margin:0px;margin-top:4px;text-align:center;&quot;&gt;&lt;i&gt;&amp;lt;&amp;lt;Interface&amp;gt;&amp;gt;&lt;/i&gt;&lt;br&gt;&lt;b&gt;Motion&lt;/b&gt;&lt;/p&gt;&lt;hr size=&quot;1&quot;&gt;&lt;p style=&quot;margin:0px;margin-left:4px;&quot;&gt;+ operator()(x: float): float&lt;/p&gt;" style="verticalAlign=top;align=left;overflow=fill;fontSize=12;fontFamily=Helvetica;html=1;whiteSpace=wrap;rounded=1;strokeColor=default;fontColor=default;startSize=26;fillColor=default;" vertex="1" parent="1">
          <mxGeometry x="890" y="200" width="150" height="73" as="geometry" />
        </mxCell>
        <mxCell id="EPye9UFax_w_HfM-WdYs-29" style="edgeStyle=orthogonalEdgeStyle;rounded=0;orthogonalLoop=1;jettySize=auto;html=1;exitX=1;exitY=0.5;exitDx=0;exitDy=0;entryX=0;entryY=0.25;entryDx=0;entryDy=0;fontFamily=Helvetica;fontSize=12;fontColor=default;startSize=20;endArrow=none;endFill=0;endSize=10;startArrow=diamondThin;startFill=1;" edge="1" parent="1" source="EPye9UFax_w_HfM-WdYs-7" target="EPye9UFax_w_HfM-WdYs-27">
          <mxGeometry relative="1" as="geometry" />
        </mxCell>
        <mxCell id="EPye9UFax_w_HfM-WdYs-30" value="Linear" style="html=1;whiteSpace=wrap;rounded=1;strokeColor=default;align=center;verticalAlign=middle;fontFamily=Helvetica;fontSize=12;fontColor=default;startSize=26;fillColor=default;" vertex="1" parent="1">
          <mxGeometry x="755" y="330" width="90" height="34" as="geometry" />
        </mxCell>
        <mxCell id="EPye9UFax_w_HfM-WdYs-31" value="Quadratic" style="html=1;whiteSpace=wrap;rounded=1;strokeColor=default;align=center;verticalAlign=middle;fontFamily=Helvetica;fontSize=12;fontColor=default;startSize=26;fillColor=default;" vertex="1" parent="1">
          <mxGeometry x="865" y="330" width="90" height="34" as="geometry" />
        </mxCell>
        <mxCell id="EPye9UFax_w_HfM-WdYs-32" value="Bezier" style="html=1;whiteSpace=wrap;rounded=1;strokeColor=default;align=center;verticalAlign=middle;fontFamily=Helvetica;fontSize=12;fontColor=default;startSize=26;fillColor=default;" vertex="1" parent="1">
          <mxGeometry x="975" y="330" width="90" height="34" as="geometry" />
        </mxCell>
        <mxCell id="EPye9UFax_w_HfM-WdYs-33" value="Sigmoid" style="html=1;whiteSpace=wrap;rounded=1;strokeColor=default;align=center;verticalAlign=middle;fontFamily=Helvetica;fontSize=12;fontColor=default;startSize=26;fillColor=default;" vertex="1" parent="1">
          <mxGeometry x="1085" y="330" width="90" height="34" as="geometry" />
        </mxCell>
      </root>
    </mxGraphModel>
  </diagram>
</mxfile>
